<?xml version="1.0" standalone="no"?>
<!DOCTYPE svg PUBLIC "-//W3C//DTD SVG 20010904//EN"
 "http://www.w3.org/TR/2001/REC-SVG-20010904/DTD/svg10.dtd">
<svg version="1.0" xmlns="http://www.w3.org/2000/svg"
 width="512.000000pt" height="512.000000pt" viewBox="0 0 512.000000 512.000000"
 preserveAspectRatio="xMidYMid meet">
<metadata>
Created by potrace 1.14, written by Peter Selinger 2001-2017
</metadata>
<g transform="translate(0.000000,512.000000) scale(0.100000,-0.100000)"
fill="#000000" stroke="none">
<path d="M1907 4950 c-58 -15 -134 -57 -183 -102 -41 -38 -114 -162 -114 -194
0 -11 -28 -14 -140 -14 -136 0 -142 -1 -165 -25 -23 -22 -25 -32 -25 -120 l0
-95 -375 0 -376 0 -24 -25 -25 -24 0 -2071 0 -2071 25 -24 24 -25 1631 0 1631
0 24 25 25 24 0 336 0 335 495 0 496 0 24 25 25 24 0 1391 0 1391 -25 24 c-24
25 -27 25 -200 25 l-175 0 0 55 c0 67 -29 105 -80 105 -51 0 -80 -38 -80 -105
l0 -55 -80 0 -80 0 0 55 c0 67 -29 105 -80 105 -51 0 -80 -38 -80 -105 l0 -55
-80 0 -80 0 0 295 0 296 -25 24 -24 25 -376 0 -375 0 0 95 c0 88 -2 98 -25
120 -23 24 -29 25 -165 25 -112 0 -140 3 -140 14 0 7 -16 45 -35 83 -43 86
-103 144 -193 186 l-67 32 -235 2 c-129 1 -252 -2 -273 -7z m487 -162 c45 -13
146 -105 146 -132 0 -14 -42 -16 -380 -16 -338 0 -380 2 -380 16 0 24 101 119
140 131 50 16 421 16 474 1z m-1114 -643 c0 -88 2 -98 25 -120 l24 -25 831 0
831 0 24 25 c23 22 25 32 25 120 l0 95 320 0 320 0 0 -240 0 -240 -560 0 -560
0 0 55 c0 67 -29 105 -80 105 -51 0 -80 -38 -80 -105 l0 -55 -80 0 -80 0 0 55
c0 67 -29 105 -80 105 -51 0 -80 -38 -80 -105 l0 -55 -175 0 c-173 0 -176 0
-200 -25 l-25 -24 0 -336 0 -335 -120 0 -120 0 0 190 0 191 55 73 c70 93 74
145 13 171 -51 21 -75 8 -136 -71 l-57 -74 -233 0 -233 0 -24 -25 -25 -24 0
-271 0 -271 25 -24 24 -25 416 0 415 0 0 -282 -1 -283 -66 -37 c-53 -31 -76
-38 -119 -38 l-54 0 0 215 c0 216 0 216 -25 240 l-24 25 -271 0 -271 0 -24
-25 -25 -24 0 -271 0 -271 25 -24 24 -25 256 0 257 0 -22 -27 c-11 -16 -37
-52 -57 -80 l-36 -53 -199 0 c-198 0 -199 0 -223 -25 l-25 -24 0 -269 c0 -343
-16 -315 185 -322 l147 -5 18 -71 c87 -343 364 -614 712 -699 101 -25 268 -30
374 -11 213 37 371 121 531 283 l103 103 405 0 405 0 0 -280 0 -280 -1520 0
-1520 0 0 1960 0 1960 320 0 320 0 0 -95z m3440 -2145 l0 -960 -880 0 c-484 0
-880 3 -880 6 0 4 11 37 24 74 29 79 56 214 56 276 l0 44 80 0 80 0 0 -95 c0
-88 2 -98 25 -120 32 -33 78 -33 110 0 23 22 25 32 25 120 l0 95 160 0 160 0
0 -95 c0 -88 2 -98 25 -120 32 -33 78 -33 110 0 23 22 25 32 25 120 l0 95 160
0 160 0 0 -95 c0 -88 2 -98 25 -120 32 -33 78 -33 110 0 23 22 25 32 25 120
l0 95 95 0 c88 0 98 2 120 25 33 32 33 78 0 110 -22 23 -32 25 -120 25 l-95 0
0 160 0 160 95 0 c88 0 98 2 120 25 33 32 33 78 0 110 -22 23 -32 25 -120 25
l-95 0 0 160 0 160 95 0 c88 0 98 2 120 25 33 32 33 78 0 110 -22 23 -32 25
-120 25 l-95 0 0 95 c0 88 -2 98 -25 120 -32 33 -78 33 -110 0 -23 -22 -25
-32 -25 -120 l0 -95 -160 0 -160 0 0 95 c0 88 -2 98 -25 120 -32 33 -78 33
-110 0 -23 -22 -25 -32 -25 -120 l0 -95 -160 0 -160 0 0 95 c0 88 -2 98 -25
120 -15 16 -36 25 -55 25 -19 0 -40 -9 -55 -25 -23 -22 -25 -32 -25 -120 l0
-95 -160 0 -160 0 0 95 c0 88 -2 98 -25 120 -15 16 -36 25 -55 25 -19 0 -40
-9 -55 -25 -23 -22 -25 -32 -25 -120 l0 -95 -160 0 -160 0 0 95 c0 88 -2 98
-25 120 -15 16 -36 25 -55 25 -19 0 -40 -9 -55 -25 -25 -24 -25 -26 -25 -204
l0 -179 -113 5 c-100 5 -206 -4 -269 -23 -17 -5 -18 13 -18 290 l0 296 1440 0
1440 0 0 -960z m-2000 279 l0 -121 -27 21 c-92 71 -250 161 -282 161 -6 0 -11
14 -11 30 l0 30 160 0 160 0 0 -121z m960 -39 l0 -160 -160 0 -160 0 0 160 0
160 160 0 160 0 0 -160z m480 0 l0 -160 -160 0 -160 0 0 160 0 160 160 0 160
0 0 -160z m-1891 -26 c242 -60 454 -243 547 -472 43 -108 57 -181 57 -302 1
-318 -176 -592 -467 -725 -113 -52 -194 -68 -331 -68 -177 1 -316 46 -460 148
-152 108 -265 277 -311 465 -24 99 -24 269 1 365 80 317 339 554 660 605 78
12 222 4 304 -16z m931 -454 l0 -160 -85 0 c-60 0 -87 4 -89 13 -32 121 -53
181 -80 238 l-32 69 143 0 143 0 0 -160z m480 0 l0 -160 -160 0 -160 0 0 160
0 160 160 0 160 0 0 -160z m480 0 l0 -160 -160 0 -160 0 0 160 0 160 160 0
160 0 0 -160z"/>
<path d="M2380 1909 c-14 -5 -107 -91 -207 -191 l-182 -182 -76 70 c-154 140
-166 142 -253 52 -164 -172 -202 -220 -202 -255 0 -42 8 -50 293 -307 200
-180 220 -196 254 -196 36 0 53 15 361 323 179 177 330 336 338 354 9 22 11
39 5 55 -12 30 -260 275 -286 281 -11 3 -31 1 -45 -4z"/>
</g>
</svg>
